<svg width="24" height="24" viewBox="0 0 24 24" fill="none" xmlns="http://www.w3.org/2000/svg">
<path d="M12 18.25C12.2708 18.25 12.4948 18.1615 12.6719 17.9844C12.849 17.8073 12.9375 17.5833 12.9375 17.3125V12.9375H17.3125C17.5833 12.9375 17.8073 12.849 17.9844 12.6719C18.1615 12.4948 18.25 12.2708 18.25 12C18.25 11.7292 18.1615 11.5052 17.9844 11.3281C17.8073 11.151 17.5833 11.0625 17.3125 11.0625H12.9375V6.6875C12.9375 6.41667 12.849 6.19271 12.6719 6.01562C12.4948 5.83854 12.2708 5.75 12 5.75C11.7292 5.75 11.5052 5.83854 11.3281 6.01562C11.151 6.19271 11.0625 6.41667 11.0625 6.6875V11.0625H6.6875C6.41667 11.0625 6.19271 11.151 6.01562 11.3281C5.83854 11.5052 5.75 11.7292 5.75 12C5.75 12.2708 5.83854 12.4948 6.01562 12.6719C6.19271 12.849 6.41667 12.9375 6.6875 12.9375H11.0625V17.3125C11.0625 17.5833 11.151 17.8073 11.3281 17.9844C11.5052 18.1615 11.7292 18.25 12 18.25ZM2.625 23.25C2.125 23.25 1.6875 23.0625 1.3125 22.6875C0.9375 22.3125 0.75 21.875 0.75 21.375V2.625C0.75 2.125 0.9375 1.6875 1.3125 1.3125C1.6875 0.9375 2.125 0.75 2.625 0.75H21.375C21.875 0.75 22.3125 0.9375 22.6875 1.3125C23.0625 1.6875 23.25 2.125 23.25 2.625V21.375C23.25 21.875 23.0625 22.3125 22.6875 22.6875C22.3125 23.0625 21.875 23.25 21.375 23.25H2.625ZM2.625 21.375H21.375V2.625H2.625V21.375ZM2.625 21.375V2.625V21.375Z" fill="black"/>
</svg>
