<svg width="18" height="16" viewBox="0 0 18 16" fill="none" xmlns="http://www.w3.org/2000/svg">
<path d="M0 14.875V1.12501C0 0.858342 0.1125 0.654175 0.3375 0.512508C0.5625 0.370842 0.8 0.350008 1.05 0.450008L17.35 7.30001C17.65 7.43334 17.8 7.66668 17.8 8.00001C17.8 8.33334 17.65 8.56668 17.35 8.70001L1.05 15.55C0.8 15.65 0.5625 15.6292 0.3375 15.4875C0.1125 15.3458 0 15.1417 0 14.875ZM1.5 13.675L15.1 8.00001L1.5 2.25001V6.45001L7.55 8.00001L1.5 9.50001V13.675ZM1.5 8.00001V2.25001V13.675V8.00001Z" fill="black"/>
</svg>
