<svg width="26" height="23" viewBox="0 0 26 23" fill="none" xmlns="http://www.w3.org/2000/svg">
<path d="M11.7188 22.125L10.0625 20.5938C7.47917 18.1979 5.23958 15.9115 3.34375 13.7344C1.44792 11.5573 0.5 9.28125 0.5 6.90625C0.5 5.03125 1.13021 3.46354 2.39062 2.20312C3.65104 0.942708 5.20833 0.3125 7.0625 0.3125C8.125 0.3125 9.17708 0.567708 10.2188 1.07812C11.2604 1.58854 12.1875 2.42708 13 3.59375C13.9167 2.42708 14.8646 1.58854 15.8438 1.07812C16.8229 0.567708 17.8542 0.3125 18.9375 0.3125C20.7917 0.3125 22.349 0.942708 23.6094 2.20312C24.8698 3.46354 25.5 5.03125 25.5 6.90625C25.5 9.28125 24.5521 11.5573 22.6562 13.7344C20.7604 15.9115 18.5208 18.1979 15.9375 20.5938L14.2812 22.125C13.9271 22.4583 13.5 22.625 13 22.625C12.5 22.625 12.0729 22.4583 11.7188 22.125Z" fill="#1F6F57"/>
</svg>
