<svg width="26" height="23" viewBox="0 0 26 23" fill="none" xmlns="http://www.w3.org/2000/svg">
<path d="M11.7188 22.125L10.0625 20.5938C7.47917 18.1979 5.23958 15.9115 3.34375 13.7344C1.44792 11.5573 0.5 9.28125 0.5 6.90625C0.5 5.03125 1.13021 3.46354 2.39062 2.20312C3.65104 0.942708 5.20833 0.3125 7.0625 0.3125C8.125 0.3125 9.17708 0.567708 10.2188 1.07812C11.2604 1.58854 12.1875 2.42708 13 3.59375C13.9167 2.42708 14.8646 1.58854 15.8438 1.07812C16.8229 0.567708 17.8542 0.3125 18.9375 0.3125C20.7917 0.3125 22.349 0.942708 23.6094 2.20312C24.8698 3.46354 25.5 5.03125 25.5 6.90625C25.5 9.28125 24.5521 11.5573 22.6562 13.7344C20.7604 15.9115 18.5208 18.1979 15.9375 20.5938L14.2812 22.125C13.9271 22.4583 13.5 22.625 13 22.625C12.5 22.625 12.0729 22.4583 11.7188 22.125ZM12.1875 5.65625C11.625 4.63542 10.8854 3.80208 9.96875 3.15625C9.05208 2.51042 8.08333 2.1875 7.0625 2.1875C5.6875 2.1875 4.5625 2.63021 3.6875 3.51563C2.8125 4.40104 2.375 5.53125 2.375 6.90625C2.375 8.11458 2.78125 9.38021 3.59375 10.7031C4.40625 12.026 5.375 13.3125 6.5 14.5625C7.625 15.8125 8.79167 16.974 10 18.0469C11.2083 19.1198 12.2083 20.0208 13 20.75C13.7917 20.0417 14.7917 19.1458 16 18.0625C17.2083 16.9792 18.375 15.8073 19.5 14.5469C20.625 13.2865 21.5938 11.9948 22.4062 10.6719C23.2188 9.34896 23.625 8.09375 23.625 6.90625C23.625 5.53125 23.1823 4.40104 22.2969 3.51563C21.4115 2.63021 20.2917 2.1875 18.9375 2.1875C17.8958 2.1875 16.9219 2.50521 16.0156 3.14062C15.1094 3.77604 14.3542 4.61458 13.75 5.65625C13.6458 5.82292 13.5312 5.94271 13.4062 6.01563C13.2812 6.08854 13.1354 6.125 12.9688 6.125C12.8021 6.125 12.651 6.08854 12.5156 6.01563C12.3802 5.94271 12.2708 5.82292 12.1875 5.65625Z" fill="black"/>
</svg>
