<svg width="20" height="23" viewBox="0 0 20 23" fill="none" xmlns="http://www.w3.org/2000/svg">
<path d="M1.875 20.375H6.5625V12.5625H13.4375V20.375H18.125V8.1875L10 2.09375L1.875 8.1875V20.375ZM1.875 22.25C1.35417 22.25 0.911458 22.0677 0.546875 21.7031C0.182292 21.3385 0 20.8958 0 20.375V8.1875C0 7.89583 0.0677082 7.61458 0.203125 7.34375C0.338542 7.07292 0.520833 6.85417 0.75 6.6875L8.875 0.59375C9.04167 0.46875 9.21875 0.375 9.40625 0.3125C9.59375 0.25 9.79167 0.21875 10 0.21875C10.2083 0.21875 10.4062 0.25 10.5938 0.3125C10.7813 0.375 10.9583 0.46875 11.125 0.59375L19.25 6.6875C19.4792 6.85417 19.6615 7.07292 19.7969 7.34375C19.9323 7.61458 20 7.89583 20 8.1875V20.375C20 20.8958 19.8177 21.3385 19.4531 21.7031C19.0885 22.0677 18.6458 22.25 18.125 22.25H11.5625V14.4375H8.4375V22.25H1.875Z" fill="black"/>
</svg>
