<svg width="23" height="24" viewBox="0 0 23 24" fill="none" xmlns="http://www.w3.org/2000/svg">
<path d="M17.1562 16.7812C16.9688 16.5938 16.875 16.3646 16.875 16.0938C16.875 15.8229 16.9688 15.6042 17.1562 15.4375L19.6562 12.9375H9.65625C9.38542 12.9375 9.16146 12.849 8.98438 12.6719C8.80729 12.4948 8.71875 12.2708 8.71875 12C8.71875 11.7292 8.80729 11.5052 8.98438 11.3281C9.16146 11.151 9.38542 11.0625 9.65625 11.0625H19.5938L17.0625 8.53125C16.8958 8.36458 16.8125 8.15104 16.8125 7.89062C16.8125 7.63021 16.9062 7.40625 17.0938 7.21875C17.2813 7.03125 17.5052 6.9375 17.7656 6.9375C18.026 6.9375 18.25 7.03125 18.4375 7.21875L22.5938 11.375C22.6979 11.4792 22.7708 11.5833 22.8125 11.6875C22.8542 11.7917 22.875 11.9062 22.875 12.0312C22.875 12.1562 22.8542 12.2708 22.8125 12.375C22.7708 12.4792 22.6979 12.5833 22.5938 12.6875L18.4688 16.8125C18.3021 16.9792 18.0885 17.0625 17.8281 17.0625C17.5677 17.0625 17.3438 16.9688 17.1562 16.7812ZM2.625 23.25C2.125 23.25 1.6875 23.0625 1.3125 22.6875C0.9375 22.3125 0.75 21.875 0.75 21.375V2.625C0.75 2.125 0.9375 1.6875 1.3125 1.3125C1.6875 0.9375 2.125 0.75 2.625 0.75H10.7812C11.0521 0.75 11.276 0.838542 11.4531 1.01563C11.6302 1.19271 11.7188 1.41667 11.7188 1.6875C11.7188 1.95833 11.6302 2.18229 11.4531 2.35937C11.276 2.53646 11.0521 2.625 10.7812 2.625H2.625V21.375H10.7812C11.0521 21.375 11.276 21.4635 11.4531 21.6406C11.6302 21.8177 11.7188 22.0417 11.7188 22.3125C11.7188 22.5833 11.6302 22.8073 11.4531 22.9844C11.276 23.1615 11.0521 23.25 10.7812 23.25H2.625Z" fill="black"/>
</svg>
