<svg width="26" height="26" viewBox="0 0 26 26" fill="none" xmlns="http://www.w3.org/2000/svg">
<path d="M15.0625 25.5H10.9375C10.7083 25.5 10.5052 25.4271 10.3281 25.2812C10.151 25.1354 10.0417 24.9479 10 24.7188L9.5 21.5625C9.10417 21.4167 8.6875 21.2188 8.25 20.9688C7.8125 20.7188 7.42708 20.4583 7.09375 20.1875L4.1875 21.5312C3.95833 21.6354 3.72917 21.651 3.5 21.5781C3.27083 21.5052 3.09375 21.3542 2.96875 21.125L0.90625 17.4688C0.78125 17.2604 0.75 17.0417 0.8125 16.8125C0.875 16.5833 1 16.3958 1.1875 16.25L3.875 14.2812C3.83333 14.0937 3.80729 13.8802 3.79688 13.6406C3.78646 13.401 3.78125 13.1875 3.78125 13C3.78125 12.8125 3.78646 12.599 3.79688 12.3594C3.80729 12.1198 3.83333 11.9063 3.875 11.7188L1.1875 9.75C1 9.60417 0.875 9.41667 0.8125 9.1875C0.75 8.95833 0.78125 8.73958 0.90625 8.53125L2.96875 4.875C3.09375 4.64583 3.27083 4.49479 3.5 4.42187C3.72917 4.34896 3.95833 4.36458 4.1875 4.46875L7.09375 5.8125C7.42708 5.54167 7.8125 5.28125 8.25 5.03125C8.6875 4.78125 9.10417 4.59375 9.5 4.46875L10 1.28125C10.0417 1.05208 10.151 0.864583 10.3281 0.71875C10.5052 0.572917 10.7083 0.5 10.9375 0.5H15.0625C15.2917 0.5 15.4948 0.572917 15.6719 0.71875C15.849 0.864583 15.9583 1.05208 16 1.28125L16.5 4.4375C16.8958 4.58333 17.3177 4.77604 17.7656 5.01562C18.2135 5.25521 18.5938 5.52083 18.9062 5.8125L21.8125 4.46875C22.0417 4.36458 22.2708 4.34896 22.5 4.42187C22.7292 4.49479 22.9062 4.64583 23.0312 4.875L25.0937 8.5C25.2187 8.70833 25.2552 8.93229 25.2031 9.17188C25.151 9.41146 25.0208 9.60417 24.8125 9.75L22.125 11.6562C22.1667 11.8646 22.1927 12.0885 22.2031 12.3281C22.2135 12.5677 22.2188 12.7917 22.2188 13C22.2188 13.2083 22.2135 13.4271 22.2031 13.6562C22.1927 13.8854 22.1667 14.1042 22.125 14.3125L24.8125 16.25C25 16.3958 25.125 16.5833 25.1875 16.8125C25.25 17.0417 25.2187 17.2604 25.0937 17.4688L23.0312 21.125C22.9062 21.3542 22.7292 21.5052 22.5 21.5781C22.2708 21.651 22.0417 21.6354 21.8125 21.5312L18.9062 20.1875C18.5729 20.4583 18.1927 20.724 17.7656 20.9844C17.3385 21.2448 16.9167 21.4375 16.5 21.5625L16 24.7188C15.9583 24.9479 15.849 25.1354 15.6719 25.2812C15.4948 25.4271 15.2917 25.5 15.0625 25.5ZM13 17.0625C14.125 17.0625 15.0833 16.6667 15.875 15.875C16.6667 15.0833 17.0625 14.125 17.0625 13C17.0625 11.875 16.6667 10.9167 15.875 10.125C15.0833 9.33333 14.125 8.9375 13 8.9375C11.875 8.9375 10.9167 9.33333 10.125 10.125C9.33333 10.9167 8.9375 11.875 8.9375 13C8.9375 14.125 9.33333 15.0833 10.125 15.875C10.9167 16.6667 11.875 17.0625 13 17.0625ZM13 15.1875C12.3958 15.1875 11.8802 14.974 11.4531 14.5469C11.026 14.1198 10.8125 13.6042 10.8125 13C10.8125 12.3958 11.026 11.8802 11.4531 11.4531C11.8802 11.026 12.3958 10.8125 13 10.8125C13.6042 10.8125 14.1198 11.026 14.5469 11.4531C14.974 11.8802 15.1875 12.3958 15.1875 13C15.1875 13.6042 14.974 14.1198 14.5469 14.5469C14.1198 14.974 13.6042 15.1875 13 15.1875ZM11.625 23.625H14.375L14.8125 20.125C15.5 19.9583 16.151 19.6979 16.7656 19.3438C17.3802 18.9896 17.9375 18.5625 18.4375 18.0625L21.75 19.5L23 17.25L20.0625 15.0938C20.1458 14.7396 20.2135 14.3906 20.2656 14.0469C20.3177 13.7031 20.3438 13.3542 20.3438 13C20.3438 12.6458 20.3229 12.2969 20.2812 11.9531C20.2396 11.6094 20.1667 11.2604 20.0625 10.9062L23 8.75L21.75 6.5L18.4375 7.9375C17.9583 7.39583 17.4167 6.94271 16.8125 6.57812C16.2083 6.21354 15.5417 5.97917 14.8125 5.875L14.375 2.375H11.625L11.1875 5.875C10.4792 6.02083 9.81771 6.27083 9.20312 6.625C8.58854 6.97917 8.04167 7.41667 7.5625 7.9375L4.25 6.5L3 8.75L5.9375 10.9062C5.85417 11.2604 5.78646 11.6094 5.73438 11.9531C5.68229 12.2969 5.65625 12.6458 5.65625 13C5.65625 13.3542 5.68229 13.7031 5.73438 14.0469C5.78646 14.3906 5.85417 14.7396 5.9375 15.0938L3 17.25L4.25 19.5L7.5625 18.0625C8.0625 18.5625 8.61979 18.9896 9.23438 19.3438C9.84896 19.6979 10.5 19.9583 11.1875 20.125L11.625 23.625Z" fill="black"/>
</svg>
