<svg width="116" height="22" viewBox="0 0 116 22" fill="none" xmlns="http://www.w3.org/2000/svg">
<path d="M8.712 4.184C9.688 4.184 10.544 4.328 11.28 4.616C12.016 4.888 12.584 5.272 12.984 5.768C13.4 6.248 13.608 6.784 13.608 7.376C13.608 8.016 13.384 8.544 12.936 8.96C12.504 9.376 11.912 9.584 11.16 9.584C10.392 9.584 9.792 9.392 9.36 9.008C8.928 8.608 8.712 8.072 8.712 7.4C8.712 7.08 8.76 6.744 8.856 6.392C8.184 6.568 7.584 6.92 7.056 7.448C6.544 7.96 6.2 8.64 6.024 9.488C5.928 9.968 5.88 10.4 5.88 10.784C5.88 11.648 6.12 12.304 6.6 12.752C7.08 13.2 7.768 13.424 8.664 13.424C9.176 13.424 9.616 13.376 9.984 13.28C10.352 13.168 10.728 13.024 11.112 12.848C11.432 12.688 11.664 12.608 11.808 12.608C11.904 12.608 11.968 12.632 12 12.68C12.032 12.712 12.048 12.792 12.048 12.92C12.064 13.512 11.816 14.136 11.304 14.792C10.808 15.432 10.112 15.976 9.216 16.424C8.336 16.856 7.344 17.072 6.24 17.072C5.088 17.072 4.064 16.864 3.168 16.448C2.288 16.016 1.6 15.408 1.104 14.624C0.624 13.824 0.384 12.896 0.384 11.84C0.384 11.344 0.448 10.792 0.576 10.184C1.008 8.2 1.96 6.704 3.432 5.696C4.92 4.688 6.68 4.184 8.712 4.184ZM21.4958 4.304C23.3358 4.304 24.8078 4.648 25.9118 5.336C27.0158 6.008 27.5678 7.04 27.5678 8.432C27.5678 8.96 27.4718 9.56 27.2798 10.232L26.2958 13.544C26.2798 13.608 26.2718 13.688 26.2718 13.784C26.2718 14.04 26.3758 14.168 26.5838 14.168C26.7758 14.168 26.9358 14.088 27.0638 13.928C27.2078 13.752 27.3038 13.664 27.3518 13.664C27.4318 13.664 27.4958 13.72 27.5438 13.832C27.6078 13.944 27.6398 14.072 27.6398 14.216C27.6558 14.648 27.4878 15.088 27.1358 15.536C26.7998 15.984 26.3438 16.352 25.7678 16.64C25.1918 16.928 24.5598 17.072 23.8718 17.072C23.0398 17.072 22.3278 16.92 21.7358 16.616C21.1438 16.312 20.7358 15.864 20.5118 15.272C20.0318 15.848 19.4638 16.296 18.8078 16.616C18.1518 16.92 17.4478 17.072 16.6958 17.072C15.8478 17.072 15.1358 16.912 14.5598 16.592C13.9838 16.256 13.5518 15.832 13.2638 15.32C12.9918 14.792 12.8558 14.24 12.8558 13.664C12.8558 13.408 12.8798 13.16 12.9278 12.92C13.1838 11.816 13.7358 10.984 14.5838 10.424C15.4478 9.864 16.4718 9.584 17.6558 9.584C18.9838 9.584 20.2878 9.792 21.5678 10.208L22.1678 8.624C22.3758 7.952 22.4798 7.432 22.4798 7.064C22.4638 6.68 22.3358 6.392 22.0958 6.2C21.8558 6.008 21.4878 5.912 20.9918 5.912C21.0878 6.168 21.1358 6.432 21.1358 6.704C21.1358 7.296 20.9118 7.808 20.4638 8.24C20.0158 8.672 19.3758 8.888 18.5438 8.888C17.7598 8.888 17.1438 8.72 16.6958 8.384C16.2638 8.032 16.0478 7.6 16.0478 7.088C16.0478 6.288 16.4958 5.624 17.3918 5.096C18.2878 4.568 19.6558 4.304 21.4958 4.304ZM20.1518 11.576C19.7038 11.576 19.3358 11.752 19.0478 12.104C18.7758 12.44 18.6398 12.808 18.6398 13.208C18.6398 13.464 18.6958 13.672 18.8078 13.832C18.9358 13.992 19.1118 14.072 19.3358 14.072C19.5438 14.072 19.7678 13.992 20.0078 13.832C20.2638 13.656 20.4478 13.4 20.5598 13.064L21.0638 11.648C20.7918 11.6 20.4878 11.576 20.1518 11.576ZM51.3749 13.688C51.3429 13.752 51.3269 13.848 51.3269 13.976C51.3269 14.088 51.3509 14.176 51.3989 14.24C51.4629 14.304 51.5429 14.336 51.6389 14.336C51.8309 14.336 51.9909 14.256 52.1189 14.096C52.2629 13.92 52.3589 13.832 52.4069 13.832C52.4869 13.832 52.5509 13.888 52.5989 14C52.6469 14.096 52.6709 14.216 52.6709 14.36C52.6869 14.824 52.5349 15.28 52.2149 15.728C51.8949 16.16 51.4229 16.52 50.7989 16.808C50.1909 17.08 49.4549 17.216 48.5909 17.216C47.5349 17.216 46.6949 16.976 46.0709 16.496C45.4469 16 45.1269 15.344 45.1109 14.528C45.1109 13.936 45.2549 13.272 45.5429 12.536L46.8629 9.08C46.9429 8.872 46.9829 8.704 46.9829 8.576C46.9829 8.368 46.9109 8.208 46.7669 8.096C46.6389 7.968 46.4789 7.904 46.2869 7.904C46.0149 7.904 45.7349 8.024 45.4469 8.264C45.1589 8.504 44.9029 8.88 44.6789 9.392L43.3589 13.688C43.3269 13.752 43.3109 13.848 43.3109 13.976C43.3109 14.088 43.3349 14.176 43.3829 14.24C43.4469 14.304 43.5269 14.336 43.6229 14.336C43.8149 14.336 43.9749 14.256 44.1029 14.096C44.2469 13.92 44.3429 13.832 44.3909 13.832C44.4709 13.832 44.5349 13.888 44.5829 14C44.6309 14.096 44.6549 14.216 44.6549 14.36C44.6709 14.824 44.5189 15.28 44.1989 15.728C43.8789 16.16 43.4069 16.52 42.7829 16.808C42.1749 17.08 41.4389 17.216 40.5749 17.216C39.5189 17.216 38.6789 16.976 38.0549 16.496C37.4309 16 37.1109 15.344 37.0949 14.528C37.0949 13.936 37.2389 13.272 37.5269 12.536L38.8469 9.08C38.9269 8.872 38.9669 8.704 38.9669 8.576C38.9669 8.368 38.8949 8.208 38.7509 8.096C38.6229 7.968 38.4629 7.904 38.2709 7.904C37.9989 7.904 37.7189 8.024 37.4309 8.264C37.1429 8.488 36.9029 8.856 36.7109 9.368L35.1269 14.504C35.0629 14.68 35.0309 14.848 35.0309 15.008C35.0309 15.2 35.0709 15.36 35.1509 15.488C35.2309 15.6 35.3429 15.72 35.4869 15.848C35.5989 15.944 35.6789 16.032 35.7269 16.112C35.7749 16.192 35.7829 16.288 35.7509 16.4C35.6869 16.608 35.5349 16.76 35.2949 16.856C35.0549 16.952 34.6789 17 34.1669 17H28.6949C28.2789 17 27.9829 16.936 27.8069 16.808C27.6149 16.664 27.5429 16.48 27.5909 16.256C27.6549 16.064 27.8229 15.896 28.0949 15.752C28.3349 15.624 28.5349 15.472 28.6949 15.296C28.8549 15.12 28.9909 14.84 29.1029 14.456L31.2389 7.52C31.2709 7.44 31.2869 7.328 31.2869 7.184C31.2869 7.008 31.2469 6.872 31.1669 6.776C31.1029 6.68 30.9909 6.56 30.8309 6.416C30.6709 6.288 30.5589 6.176 30.4949 6.08C30.4309 5.984 30.4229 5.856 30.4709 5.696C30.5669 5.328 31.0709 5.008 31.9829 4.736C32.8949 4.448 33.8469 4.304 34.8389 4.304C35.6229 4.304 36.2389 4.52 36.6869 4.952C37.1509 5.384 37.3749 5.976 37.3589 6.728C38.0149 5.816 38.7029 5.184 39.4229 4.832C40.1589 4.48 40.9509 4.304 41.7989 4.304C42.7269 4.304 43.4789 4.576 44.0549 5.12C44.6469 5.648 44.9749 6.344 45.0389 7.208C45.7269 6.12 46.4629 5.368 47.2469 4.952C48.0309 4.52 48.8869 4.304 49.8149 4.304C50.7909 4.304 51.5749 4.6 52.1669 5.192C52.7749 5.784 53.0789 6.552 53.0789 7.496C53.0789 7.992 52.9989 8.48 52.8389 8.96L51.3749 13.688ZM62.1874 4.304C64.0274 4.304 65.4994 4.648 66.6034 5.336C67.7074 6.008 68.2594 7.04 68.2594 8.432C68.2594 8.96 68.1634 9.56 67.9714 10.232L66.9874 13.544C66.9714 13.608 66.9634 13.688 66.9634 13.784C66.9634 14.04 67.0674 14.168 67.2754 14.168C67.4674 14.168 67.6274 14.088 67.7554 13.928C67.8994 13.752 67.9954 13.664 68.0434 13.664C68.1234 13.664 68.1874 13.72 68.2354 13.832C68.2994 13.944 68.3314 14.072 68.3314 14.216C68.3474 14.648 68.1794 15.088 67.8274 15.536C67.4914 15.984 67.0354 16.352 66.4594 16.64C65.8834 16.928 65.2514 17.072 64.5634 17.072C63.7314 17.072 63.0194 16.92 62.4274 16.616C61.8354 16.312 61.4274 15.864 61.2034 15.272C60.7234 15.848 60.1554 16.296 59.4994 16.616C58.8434 16.92 58.1394 17.072 57.3874 17.072C56.5394 17.072 55.8274 16.912 55.2514 16.592C54.6754 16.256 54.2434 15.832 53.9554 15.32C53.6834 14.792 53.5474 14.24 53.5474 13.664C53.5474 13.408 53.5714 13.16 53.6194 12.92C53.8754 11.816 54.4274 10.984 55.2754 10.424C56.1394 9.864 57.1634 9.584 58.3474 9.584C59.6754 9.584 60.9794 9.792 62.2594 10.208L62.8594 8.624C63.0674 7.952 63.1714 7.432 63.1714 7.064C63.1554 6.68 63.0274 6.392 62.7874 6.2C62.5474 6.008 62.1794 5.912 61.6834 5.912C61.7794 6.168 61.8274 6.432 61.8274 6.704C61.8274 7.296 61.6034 7.808 61.1554 8.24C60.7074 8.672 60.0674 8.888 59.2354 8.888C58.4514 8.888 57.8354 8.72 57.3874 8.384C56.9554 8.032 56.7394 7.6 56.7394 7.088C56.7394 6.288 57.1874 5.624 58.0834 5.096C58.9794 4.568 60.3474 4.304 62.1874 4.304ZM60.8434 11.576C60.3954 11.576 60.0274 11.752 59.7394 12.104C59.4674 12.44 59.3314 12.808 59.3314 13.208C59.3314 13.464 59.3874 13.672 59.4994 13.832C59.6274 13.992 59.8034 14.072 60.0274 14.072C60.2354 14.072 60.4594 13.992 60.6994 13.832C60.9554 13.656 61.1394 13.4 61.2514 13.064L61.7554 11.648C61.4834 11.6 61.1794 11.576 60.8434 11.576ZM83.7865 0.391999C84.2985 0.391999 84.7945 0.503999 85.2745 0.727999C85.7705 0.935999 86.1705 1.232 86.4745 1.616C86.7945 1.984 86.9545 2.384 86.9545 2.816C86.9545 3.76 86.3145 4.232 85.0345 4.232C84.6665 4.232 84.3785 4.208 84.1705 4.16C83.9785 4.096 83.7465 4 83.4745 3.872C83.4265 3.984 83.4025 4.144 83.4025 4.352C83.4025 4.608 83.4425 4.912 83.5225 5.264C83.6185 5.616 83.7305 5.944 83.8585 6.248C84.1945 6.744 84.3625 7.336 84.3625 8.024C84.3625 8.328 84.3225 8.696 84.2425 9.128C84.0505 9.96 83.6265 10.72 82.9705 11.408C82.3305 12.096 81.4985 12.64 80.4745 13.04C79.4665 13.424 78.3545 13.616 77.1385 13.616C76.2105 13.616 75.3385 13.552 74.5225 13.424C74.2825 13.632 74.1625 13.888 74.1625 14.192C74.1625 14.4 74.2585 14.576 74.4505 14.72C74.6425 14.848 74.9625 14.912 75.4105 14.912H79.0105C80.2425 14.912 81.2025 15.128 81.8905 15.56C82.5785 15.976 82.9225 16.576 82.9225 17.36C82.9225 17.648 82.8745 17.944 82.7785 18.248C82.5865 18.872 82.1465 19.448 81.4585 19.976C80.7865 20.52 79.8345 20.96 78.6025 21.296C77.3705 21.632 75.8745 21.8 74.1145 21.8C72.5465 21.8 71.2185 21.664 70.1305 21.392C69.0425 21.12 68.2345 20.744 67.7065 20.264C67.1625 19.8 66.8905 19.28 66.8905 18.704C66.8905 18.576 66.9225 18.384 66.9865 18.128C67.1305 17.664 67.4585 17.288 67.9705 17C68.4665 16.696 69.2905 16.496 70.4425 16.4C70.0585 16.032 69.8665 15.592 69.8665 15.08C69.8665 14.904 69.8905 14.72 69.9385 14.528C70.1945 13.696 70.9465 13.08 72.1945 12.68C70.9945 12.024 70.3945 11.064 70.3945 9.8C70.3945 9.448 70.4425 9.08 70.5385 8.696C70.7305 7.864 71.1545 7.112 71.8105 6.44C72.4665 5.752 73.3065 5.208 74.3305 4.808C75.3545 4.408 76.4745 4.208 77.6905 4.208C79.5945 4.208 81.0905 4.456 82.1785 4.952C81.9385 4.584 81.7465 4.192 81.6025 3.776C81.4745 3.344 81.4105 2.952 81.4105 2.6C81.4105 1.992 81.6025 1.472 81.9865 1.04C82.3865 0.607999 82.9865 0.391999 83.7865 0.391999ZM78.5785 8.912C78.8345 8.096 78.9625 7.472 78.9625 7.04C78.9625 6.496 78.7305 6.224 78.2665 6.224C77.8665 6.224 77.5145 6.424 77.2105 6.824C76.9225 7.208 76.6265 7.904 76.3225 8.912C76.0665 9.744 75.9385 10.376 75.9385 10.808C75.9385 11.336 76.1625 11.6 76.6105 11.6C77.0105 11.6 77.3625 11.4 77.6665 11C77.9705 10.6 78.2745 9.904 78.5785 8.912ZM73.8025 17.336C73.3545 17.336 72.9465 17.312 72.5785 17.264C72.3865 17.504 72.2905 17.824 72.2905 18.224C72.3065 18.624 72.4665 18.912 72.7705 19.088C73.0905 19.264 73.5785 19.352 74.2345 19.352C75.0345 19.352 75.6825 19.232 76.1785 18.992C76.6905 18.752 76.9465 18.408 76.9465 17.96C76.9465 17.768 76.8745 17.616 76.7305 17.504C76.5865 17.392 76.3785 17.336 76.1065 17.336H73.8025ZM96.6496 4.304C97.5456 4.304 98.2576 4.576 98.7856 5.12C99.3296 5.664 99.6016 6.336 99.6016 7.136C99.6016 7.44 99.5696 7.72 99.5056 7.976C99.3456 8.632 99.0416 9.136 98.5936 9.488C98.1456 9.84 97.6096 10.016 96.9856 10.016C96.3776 10.016 95.9136 9.872 95.5936 9.584C95.2896 9.296 95.0176 8.912 94.7776 8.432C94.6496 8.16 94.5296 7.96 94.4176 7.832C94.3056 7.704 94.1776 7.64 94.0336 7.64C93.8736 7.64 93.7296 7.704 93.6016 7.832C93.4896 7.96 93.3856 8.184 93.2896 8.504L91.4416 14.504C91.4096 14.584 91.3936 14.704 91.3936 14.864C91.3936 15.072 91.4496 15.248 91.5616 15.392C91.6896 15.52 91.8576 15.648 92.0656 15.776C92.2576 15.904 92.3856 16.008 92.4496 16.088C92.5136 16.168 92.5376 16.272 92.5216 16.4C92.4896 16.608 92.3696 16.76 92.1616 16.856C91.9696 16.952 91.6336 17 91.1536 17H85.0096C84.5936 17 84.2976 16.936 84.1216 16.808C83.9296 16.664 83.8576 16.48 83.9056 16.256C83.9696 16.064 84.1376 15.896 84.4096 15.752C84.6496 15.624 84.8496 15.472 85.0096 15.296C85.1696 15.12 85.3056 14.84 85.4176 14.456L87.5536 7.52C87.5856 7.44 87.6016 7.328 87.6016 7.184C87.6016 7.008 87.5616 6.872 87.4816 6.776C87.4176 6.68 87.3056 6.56 87.1456 6.416C86.9856 6.288 86.8736 6.176 86.8096 6.08C86.7456 5.984 86.7376 5.856 86.7856 5.696C86.8816 5.328 87.3856 5.008 88.2976 4.736C89.2096 4.448 90.1616 4.304 91.1536 4.304C91.8096 4.304 92.3536 4.456 92.7856 4.76C93.2176 5.048 93.4976 5.464 93.6256 6.008C94.3936 4.872 95.4016 4.304 96.6496 4.304ZM113.292 13.688C113.26 13.816 113.244 13.912 113.244 13.976C113.244 14.088 113.268 14.176 113.316 14.24C113.38 14.304 113.46 14.336 113.556 14.336C113.748 14.336 113.908 14.256 114.036 14.096C114.18 13.92 114.276 13.832 114.324 13.832C114.404 13.832 114.468 13.888 114.516 14C114.58 14.096 114.612 14.216 114.612 14.36C114.628 14.808 114.468 15.256 114.132 15.704C113.796 16.136 113.324 16.496 112.716 16.784C112.108 17.072 111.428 17.216 110.676 17.216C109.732 17.216 108.98 17.024 108.42 16.64C107.86 16.256 107.5 15.752 107.34 15.128C106.764 15.768 106.124 16.256 105.42 16.592C104.732 16.912 104.028 17.072 103.308 17.072C102.188 17.072 101.244 16.8 100.476 16.256C99.7236 15.696 99.3476 14.92 99.3476 13.928C99.3476 13.48 99.4276 13.016 99.5876 12.536L101.124 7.52C101.172 7.376 101.196 7.256 101.196 7.16C101.196 6.984 101.156 6.848 101.076 6.752C100.996 6.64 100.876 6.528 100.716 6.416C100.556 6.288 100.444 6.176 100.38 6.08C100.316 5.984 100.308 5.856 100.356 5.696C100.452 5.328 100.956 5.008 101.868 4.736C102.78 4.448 103.732 4.304 104.724 4.304C105.652 4.304 106.332 4.48 106.764 4.832C107.196 5.184 107.412 5.664 107.412 6.272C107.412 6.64 107.356 6.992 107.244 7.328L105.732 12.32C105.668 12.496 105.636 12.664 105.636 12.824C105.636 13.048 105.7 13.216 105.828 13.328C105.956 13.44 106.124 13.496 106.332 13.496C106.636 13.496 106.884 13.408 107.076 13.232C107.268 13.056 107.46 12.76 107.652 12.344L109.116 7.52C109.164 7.376 109.188 7.256 109.188 7.16C109.188 6.984 109.148 6.848 109.068 6.752C108.988 6.64 108.876 6.528 108.732 6.416C108.572 6.288 108.46 6.176 108.396 6.08C108.332 5.984 108.324 5.856 108.372 5.696C108.452 5.328 108.948 5.008 109.86 4.736C110.772 4.448 111.724 4.304 112.716 4.304C113.644 4.304 114.324 4.48 114.756 4.832C115.204 5.184 115.428 5.656 115.428 6.248C115.428 6.552 115.364 6.912 115.236 7.328L113.292 13.688Z" fill="black"/>
</svg>
